<svg width="512" height="512" viewBox="0 0 512 512" fill="none" xmlns="http://www.w3.org/2000/svg">
  <rect width="512" height="512" rx="112" fill="#F8F0E8" />
  <rect x="20" y="20" width="472" height="472" rx="100" fill="url(#bloomBg)" />
  <g transform="translate(166 118) scale(1)">
    <path
      d="M88 208C92 186 95 171 96 152C98 125 92 103 89 82"
      stroke="#C5966F"
      stroke-width="5"
      stroke-linecap="round"
    />
    <path
      d="M95 154C106 140 118 131 132 126"
      stroke="#D0A07A"
      stroke-width="5"
      stroke-linecap="round"
    />
    <path
      d="M92 146C80 134 68 128 55 126"
      stroke="#D0A07A"
      stroke-width="5"
      stroke-linecap="round"
    />
    <ellipse cx="90" cy="77" rx="22" ry="28" fill="#F0A7B9" />
    <ellipse cx="65" cy="88" rx="19" ry="23" fill="#F7B3C4" />
    <ellipse cx="113" cy="90" rx="19" ry="23" fill="#FABBC9" />
    <ellipse cx="81" cy="103" rx="19" ry="22" fill="#E79AAF" />
    <ellipse cx="104" cy="106" rx="17" ry="20" fill="#EDA4B8" />
    <circle cx="92" cy="95" r="9" fill="#AF6977" />
    <ellipse cx="49" cy="136" rx="14" ry="6" transform="rotate(32 49 136)" fill="#D6B28C" />
    <ellipse cx="65" cy="150" rx="14" ry="6" transform="rotate(-18 65 150)" fill="#DEB592" />
    <ellipse cx="125" cy="142" rx="16" ry="7" transform="rotate(-28 125 142)" fill="#DAB08C" />
    <ellipse cx="140" cy="127" rx="18" ry="8" transform="rotate(20 140 127)" fill="#D8AA82" />
    <path d="M136 53L139 60L146 63L139 66L136 73L133 66L126 63L133 60L136 53Z" fill="#E0AF88" />
    <circle cx="150" cy="71" r="3" fill="#F7B2C3" />
    <circle cx="41" cy="82" r="2.5" fill="#F0AABD" />
    <circle cx="29" cy="132" r="2.5" fill="#DCAA86" />
  </g>
  <defs>
    <linearGradient id="bloomBg" x1="48" y1="32" x2="464" y2="480" gradientUnits="userSpaceOnUse">
      <stop stop-color="#F1C0CA" />
      <stop offset="1" stop-color="#BBDED0" />
    </linearGradient>
  </defs>
</svg>
